<mxfile host="app.diagrams.net" agent="Mozilla/5.0 (X11; Linux x86_64; rv:138.0) Gecko/20100101 Firefox/138.0" version="27.1.4">
  <diagram name="Página-1" id="It1qzduIuD1k7aNBOJ3f">
    <mxGraphModel grid="1" page="1" gridSize="10" guides="1" tooltips="1" connect="1" arrows="1" fold="1" pageScale="1" pageWidth="827" pageHeight="1169" math="0" shadow="0">
      <root>
        <mxCell id="0" />
        <mxCell id="1" parent="0" />
        <mxCell id="Q_hBiNqEn_xHVOAoxWD8-1" value="Fazer login/cadastro" style="shape=umlFrame;whiteSpace=wrap;html=1;pointerEvents=0;width=170;height=30;fillColor=default;strokeWidth=2;fontStyle=1" vertex="1" parent="1">
          <mxGeometry x="410" y="650" width="1140" height="750" as="geometry" />
        </mxCell>
        <mxCell id="Q_hBiNqEn_xHVOAoxWD8-9" value="" style="swimlane;startSize=0;strokeWidth=2;fontStyle=1" vertex="1" parent="1">
          <mxGeometry x="430" y="690" width="340" height="690" as="geometry" />
        </mxCell>
        <mxCell id="Q_hBiNqEn_xHVOAoxWD8-10" value="Usuário" style="text;html=1;align=center;verticalAlign=middle;whiteSpace=wrap;rounded=0;direction=west;rotation=0;fontStyle=1;strokeWidth=2;" vertex="1" parent="Q_hBiNqEn_xHVOAoxWD8-9">
          <mxGeometry x="140" width="60" height="30" as="geometry" />
        </mxCell>
        <mxCell id="Q_hBiNqEn_xHVOAoxWD8-11" value="Abrir tela de login" style="rounded=1;whiteSpace=wrap;html=1;arcSize=40;strokeWidth=2;fontStyle=1" vertex="1" parent="Q_hBiNqEn_xHVOAoxWD8-9">
          <mxGeometry x="33" y="120" width="120" height="40" as="geometry" />
        </mxCell>
        <mxCell id="Q_hBiNqEn_xHVOAoxWD8-19" style="edgeStyle=orthogonalEdgeStyle;rounded=0;orthogonalLoop=1;jettySize=auto;html=1;entryX=0.5;entryY=0;entryDx=0;entryDy=0;endArrow=open;endFill=0;strokeWidth=2;fontStyle=1" edge="1" parent="Q_hBiNqEn_xHVOAoxWD8-9" source="Q_hBiNqEn_xHVOAoxWD8-20" target="Q_hBiNqEn_xHVOAoxWD8-11">
          <mxGeometry relative="1" as="geometry">
            <mxPoint x="168" y="80" as="sourcePoint" />
          </mxGeometry>
        </mxCell>
        <mxCell id="Q_hBiNqEn_xHVOAoxWD8-20" value="" style="ellipse;html=1;shape=startState;fillColor=light-dark(#000000,#000000);strokeColor=none;strokeWidth=2;fontStyle=1" vertex="1" parent="Q_hBiNqEn_xHVOAoxWD8-9">
          <mxGeometry x="78" y="50" width="30" height="30" as="geometry" />
        </mxCell>
        <mxCell id="Q_hBiNqEn_xHVOAoxWD8-64" style="edgeStyle=orthogonalEdgeStyle;rounded=0;orthogonalLoop=1;jettySize=auto;html=1;exitX=0.5;exitY=1;exitDx=0;exitDy=0;strokeWidth=2;fontStyle=1;endArrow=open;endFill=0;" edge="1" parent="Q_hBiNqEn_xHVOAoxWD8-9" source="Q_hBiNqEn_xHVOAoxWD8-46" target="Q_hBiNqEn_xHVOAoxWD8-63">
          <mxGeometry relative="1" as="geometry" />
        </mxCell>
        <mxCell id="Q_hBiNqEn_xHVOAoxWD8-46" value="" style="rhombus;whiteSpace=wrap;html=1;fontStyle=1;strokeWidth=2;container=0;" vertex="1" parent="Q_hBiNqEn_xHVOAoxWD8-9">
          <mxGeometry x="63" y="200" width="45" height="40" as="geometry" />
        </mxCell>
        <mxCell id="Q_hBiNqEn_xHVOAoxWD8-62" style="edgeStyle=orthogonalEdgeStyle;rounded=0;orthogonalLoop=1;jettySize=auto;html=1;exitX=1;exitY=0.5;exitDx=0;exitDy=0;entryX=0.5;entryY=0;entryDx=0;entryDy=0;strokeWidth=2;fontStyle=1;endArrow=open;endFill=0;" edge="1" parent="Q_hBiNqEn_xHVOAoxWD8-9" source="Q_hBiNqEn_xHVOAoxWD8-46" target="Q_hBiNqEn_xHVOAoxWD8-55">
          <mxGeometry relative="1" as="geometry" />
        </mxCell>
        <mxCell id="Q_hBiNqEn_xHVOAoxWD8-55" value="Preencher cadastro" style="rounded=1;whiteSpace=wrap;html=1;arcSize=40;strokeWidth=2;fontStyle=1" vertex="1" parent="Q_hBiNqEn_xHVOAoxWD8-9">
          <mxGeometry x="190" y="240" width="120" height="40" as="geometry" />
        </mxCell>
        <mxCell id="Q_hBiNqEn_xHVOAoxWD8-57" value="Selecionar Email" style="rounded=1;whiteSpace=wrap;html=1;arcSize=40;strokeWidth=2;fontStyle=1" vertex="1" parent="Q_hBiNqEn_xHVOAoxWD8-9">
          <mxGeometry x="25.5" y="490" width="120" height="40" as="geometry" />
        </mxCell>
        <mxCell id="Q_hBiNqEn_xHVOAoxWD8-67" style="edgeStyle=orthogonalEdgeStyle;rounded=0;orthogonalLoop=1;jettySize=auto;html=1;exitX=0.5;exitY=1;exitDx=0;exitDy=0;entryX=0.5;entryY=0;entryDx=0;entryDy=0;strokeWidth=2;fontStyle=1;endArrow=open;endFill=0;" edge="1" parent="Q_hBiNqEn_xHVOAoxWD8-9" source="Q_hBiNqEn_xHVOAoxWD8-63" target="Q_hBiNqEn_xHVOAoxWD8-57">
          <mxGeometry relative="1" as="geometry">
            <mxPoint x="85.5" y="479" as="targetPoint" />
          </mxGeometry>
        </mxCell>
        <mxCell id="Q_hBiNqEn_xHVOAoxWD8-68" style="edgeStyle=orthogonalEdgeStyle;rounded=0;orthogonalLoop=1;jettySize=auto;html=1;exitX=1;exitY=0.5;exitDx=0;exitDy=0;entryX=0;entryY=0.5;entryDx=0;entryDy=0;strokeWidth=2;fontStyle=1;endArrow=open;endFill=0;" edge="1" parent="Q_hBiNqEn_xHVOAoxWD8-9" source="Q_hBiNqEn_xHVOAoxWD8-63" target="Q_hBiNqEn_xHVOAoxWD8-50">
          <mxGeometry relative="1" as="geometry" />
        </mxCell>
        <mxCell id="Q_hBiNqEn_xHVOAoxWD8-63" value="" style="rhombus;whiteSpace=wrap;html=1;fontStyle=1;strokeWidth=2;container=0;" vertex="1" parent="Q_hBiNqEn_xHVOAoxWD8-9">
          <mxGeometry x="63" y="370" width="45" height="40" as="geometry" />
        </mxCell>
        <mxCell id="Q_hBiNqEn_xHVOAoxWD8-65" value="[else]" style="text;html=1;align=center;verticalAlign=middle;resizable=0;points=[];autosize=1;strokeColor=none;fillColor=none;fontStyle=1;strokeWidth=2;" vertex="1" parent="Q_hBiNqEn_xHVOAoxWD8-9">
          <mxGeometry x="120" y="190" width="50" height="30" as="geometry" />
        </mxCell>
        <mxCell id="Q_hBiNqEn_xHVOAoxWD8-66" value="[cadastrado]" style="text;html=1;align=center;verticalAlign=middle;whiteSpace=wrap;rounded=0;fontStyle=1;strokeWidth=2;" vertex="1" parent="Q_hBiNqEn_xHVOAoxWD8-9">
          <mxGeometry x="104" y="290" width="60" height="30" as="geometry" />
        </mxCell>
        <mxCell id="Q_hBiNqEn_xHVOAoxWD8-50" value="Inserir email e senha" style="rounded=1;whiteSpace=wrap;html=1;arcSize=40;strokeWidth=2;fontStyle=1" vertex="1" parent="Q_hBiNqEn_xHVOAoxWD8-9">
          <mxGeometry x="180" y="370" width="120" height="40" as="geometry" />
        </mxCell>
        <mxCell id="Q_hBiNqEn_xHVOAoxWD8-69" value="[login google]" style="text;html=1;align=center;verticalAlign=middle;whiteSpace=wrap;rounded=0;fontStyle=1;strokeWidth=2;" vertex="1" parent="Q_hBiNqEn_xHVOAoxWD8-9">
          <mxGeometry x="88" y="420" width="92" height="30" as="geometry" />
        </mxCell>
        <mxCell id="Q_hBiNqEn_xHVOAoxWD8-70" value="[else]" style="text;html=1;align=center;verticalAlign=middle;whiteSpace=wrap;rounded=0;fontStyle=1;strokeWidth=2;" vertex="1" parent="Q_hBiNqEn_xHVOAoxWD8-9">
          <mxGeometry x="88" y="360" width="92" height="30" as="geometry" />
        </mxCell>
        <mxCell id="Q_hBiNqEn_xHVOAoxWD8-21" value="" style="swimlane;startSize=0;strokeWidth=2;fontStyle=1" vertex="1" parent="1">
          <mxGeometry x="771.5" y="690" width="498.5" height="690" as="geometry" />
        </mxCell>
        <mxCell id="Q_hBiNqEn_xHVOAoxWD8-41" value="Sistema" style="text;html=1;align=center;verticalAlign=middle;whiteSpace=wrap;rounded=0;rotation=0;fontStyle=1;strokeWidth=2;" vertex="1" parent="Q_hBiNqEn_xHVOAoxWD8-21">
          <mxGeometry x="219.25" width="60" height="30" as="geometry" />
        </mxCell>
        <mxCell id="Q_hBiNqEn_xHVOAoxWD8-52" value="Exibir Formulário" style="rounded=1;whiteSpace=wrap;html=1;arcSize=40;strokeWidth=2;fontStyle=1" vertex="1" parent="Q_hBiNqEn_xHVOAoxWD8-21">
          <mxGeometry x="128.5" y="60" width="120" height="40" as="geometry" />
        </mxCell>
        <mxCell id="Q_hBiNqEn_xHVOAoxWD8-79" style="edgeStyle=orthogonalEdgeStyle;rounded=0;orthogonalLoop=1;jettySize=auto;html=1;exitX=0.5;exitY=1;exitDx=0;exitDy=0;entryX=0.5;entryY=0;entryDx=0;entryDy=0;strokeWidth=2;fontStyle=1;endArrow=open;endFill=0;" edge="1" parent="Q_hBiNqEn_xHVOAoxWD8-21" source="Q_hBiNqEn_xHVOAoxWD8-71" target="Q_hBiNqEn_xHVOAoxWD8-73">
          <mxGeometry relative="1" as="geometry" />
        </mxCell>
        <mxCell id="Q_hBiNqEn_xHVOAoxWD8-71" value="Validar dados" style="rounded=1;whiteSpace=wrap;html=1;arcSize=40;strokeWidth=2;fontStyle=1" vertex="1" parent="Q_hBiNqEn_xHVOAoxWD8-21">
          <mxGeometry x="128.5" y="200" width="120" height="40" as="geometry" />
        </mxCell>
        <mxCell id="Q_hBiNqEn_xHVOAoxWD8-80" style="edgeStyle=orthogonalEdgeStyle;rounded=0;orthogonalLoop=1;jettySize=auto;html=1;exitX=1;exitY=0.5;exitDx=0;exitDy=0;entryX=0.5;entryY=0;entryDx=0;entryDy=0;strokeWidth=2;fontStyle=1;endArrow=open;endFill=0;" edge="1" parent="Q_hBiNqEn_xHVOAoxWD8-21" source="Q_hBiNqEn_xHVOAoxWD8-73" target="Q_hBiNqEn_xHVOAoxWD8-75">
          <mxGeometry relative="1" as="geometry" />
        </mxCell>
        <mxCell id="Q_hBiNqEn_xHVOAoxWD8-81" style="edgeStyle=orthogonalEdgeStyle;rounded=0;orthogonalLoop=1;jettySize=auto;html=1;exitX=0.5;exitY=1;exitDx=0;exitDy=0;entryX=0.5;entryY=0;entryDx=0;entryDy=0;strokeWidth=2;fontStyle=1;endArrow=open;endFill=0;" edge="1" parent="Q_hBiNqEn_xHVOAoxWD8-21" source="Q_hBiNqEn_xHVOAoxWD8-73" target="Q_hBiNqEn_xHVOAoxWD8-74">
          <mxGeometry relative="1" as="geometry" />
        </mxCell>
        <mxCell id="Q_hBiNqEn_xHVOAoxWD8-73" value="" style="rhombus;whiteSpace=wrap;html=1;strokeWidth=2;fontStyle=1" vertex="1" parent="Q_hBiNqEn_xHVOAoxWD8-21">
          <mxGeometry x="161.38" y="270" width="54.25" height="50" as="geometry" />
        </mxCell>
        <mxCell id="Q_hBiNqEn_xHVOAoxWD8-74" value="Exibir mensagem de erro" style="rounded=1;whiteSpace=wrap;html=1;arcSize=40;strokeWidth=2;fontStyle=1" vertex="1" parent="Q_hBiNqEn_xHVOAoxWD8-21">
          <mxGeometry x="136.01" y="380" width="105" height="40" as="geometry" />
        </mxCell>
        <mxCell id="Q_hBiNqEn_xHVOAoxWD8-83" style="edgeStyle=orthogonalEdgeStyle;rounded=0;orthogonalLoop=1;jettySize=auto;html=1;exitX=0.5;exitY=1;exitDx=0;exitDy=0;entryX=0.5;entryY=0;entryDx=0;entryDy=0;strokeWidth=2;fontStyle=1;endArrow=open;endFill=0;" edge="1" parent="Q_hBiNqEn_xHVOAoxWD8-21" source="Q_hBiNqEn_xHVOAoxWD8-75" target="_QOIRfVNd8GYYF-5jFCs-1">
          <mxGeometry relative="1" as="geometry" />
        </mxCell>
        <mxCell id="Q_hBiNqEn_xHVOAoxWD8-75" value="Criar registro" style="rounded=1;whiteSpace=wrap;html=1;arcSize=40;strokeWidth=2;fontStyle=1" vertex="1" parent="Q_hBiNqEn_xHVOAoxWD8-21">
          <mxGeometry x="246.13" y="320" width="120" height="40" as="geometry" />
        </mxCell>
        <mxCell id="Q_hBiNqEn_xHVOAoxWD8-76" value="[else]" style="text;html=1;align=center;verticalAlign=middle;whiteSpace=wrap;rounded=0;fontStyle=1;strokeWidth=2;" vertex="1" parent="Q_hBiNqEn_xHVOAoxWD8-21">
          <mxGeometry x="136.01" y="325" width="60" height="30" as="geometry" />
        </mxCell>
        <mxCell id="Q_hBiNqEn_xHVOAoxWD8-77" value="[válido]" style="text;html=1;align=center;verticalAlign=middle;whiteSpace=wrap;rounded=0;fontStyle=1;strokeWidth=2;" vertex="1" parent="Q_hBiNqEn_xHVOAoxWD8-21">
          <mxGeometry x="215.63" y="270" width="60" height="30" as="geometry" />
        </mxCell>
        <mxCell id="_QOIRfVNd8GYYF-5jFCs-5" style="edgeStyle=orthogonalEdgeStyle;rounded=0;orthogonalLoop=1;jettySize=auto;html=1;entryX=0;entryY=0.5;entryDx=0;entryDy=0;strokeWidth=2;fontStyle=1;endArrow=open;endFill=0;" edge="1" parent="Q_hBiNqEn_xHVOAoxWD8-21" source="_QOIRfVNd8GYYF-5jFCs-1" target="Q_hBiNqEn_xHVOAoxWD8-59">
          <mxGeometry relative="1" as="geometry">
            <Array as="points">
              <mxPoint x="306" y="570" />
            </Array>
          </mxGeometry>
        </mxCell>
        <mxCell id="_QOIRfVNd8GYYF-5jFCs-1" value="Exibir mensagem de sucesso" style="rounded=1;whiteSpace=wrap;html=1;arcSize=40;strokeWidth=2;fontStyle=1" vertex="1" parent="Q_hBiNqEn_xHVOAoxWD8-21">
          <mxGeometry x="244.63" y="430" width="123" height="40" as="geometry" />
        </mxCell>
        <mxCell id="Q_hBiNqEn_xHVOAoxWD8-59" value="Permitir acesso" style="rounded=1;whiteSpace=wrap;html=1;arcSize=50;strokeWidth=2;fontStyle=1" vertex="1" parent="Q_hBiNqEn_xHVOAoxWD8-21">
          <mxGeometry x="336" y="550" width="120" height="40" as="geometry" />
        </mxCell>
        <mxCell id="SYo61iC2OcOXfZJLhJHc-12" value="" style="ellipse;html=1;shape=endState;fillColor=light-dark(#000000,#000000);strokeColor=default;strokeWidth=2;fontStyle=1" vertex="1" parent="Q_hBiNqEn_xHVOAoxWD8-21">
          <mxGeometry x="381" y="640" width="30" height="30" as="geometry" />
        </mxCell>
        <mxCell id="SYo61iC2OcOXfZJLhJHc-13" style="edgeStyle=orthogonalEdgeStyle;rounded=0;orthogonalLoop=1;jettySize=auto;html=1;entryX=0.5;entryY=0;entryDx=0;entryDy=0;strokeWidth=2;fontStyle=1;endArrow=open;endFill=0;" edge="1" parent="Q_hBiNqEn_xHVOAoxWD8-21" source="Q_hBiNqEn_xHVOAoxWD8-59" target="SYo61iC2OcOXfZJLhJHc-12">
          <mxGeometry relative="1" as="geometry" />
        </mxCell>
        <mxCell id="Q_hBiNqEn_xHVOAoxWD8-60" value="Negar acesso" style="rounded=1;whiteSpace=wrap;html=1;arcSize=40;strokeWidth=2;fontStyle=1" vertex="1" parent="Q_hBiNqEn_xHVOAoxWD8-21">
          <mxGeometry x="336" y="130" width="120" height="40" as="geometry" />
        </mxCell>
        <mxCell id="7lL12VwE3lAqNcfQPV7W-7" style="edgeStyle=orthogonalEdgeStyle;rounded=0;orthogonalLoop=1;jettySize=auto;html=1;entryX=1;entryY=0.5;entryDx=0;entryDy=0;strokeWidth=2;fontStyle=1;endArrow=open;endFill=0;" edge="1" parent="Q_hBiNqEn_xHVOAoxWD8-21" source="Q_hBiNqEn_xHVOAoxWD8-60" target="Q_hBiNqEn_xHVOAoxWD8-52">
          <mxGeometry relative="1" as="geometry">
            <Array as="points">
              <mxPoint x="389" y="80" />
            </Array>
          </mxGeometry>
        </mxCell>
        <mxCell id="_QOIRfVNd8GYYF-5jFCs-4" style="edgeStyle=orthogonalEdgeStyle;rounded=0;orthogonalLoop=1;jettySize=auto;html=1;entryX=0.5;entryY=0;entryDx=0;entryDy=0;exitX=0.5;exitY=1;exitDx=0;exitDy=0;strokeWidth=2;fontStyle=1;endArrow=open;endFill=0;" edge="1" parent="Q_hBiNqEn_xHVOAoxWD8-21" source="SYo61iC2OcOXfZJLhJHc-8" target="Q_hBiNqEn_xHVOAoxWD8-59">
          <mxGeometry relative="1" as="geometry">
            <mxPoint x="283.13" y="570" as="sourcePoint" />
          </mxGeometry>
        </mxCell>
        <mxCell id="SYo61iC2OcOXfZJLhJHc-8" value="" style="rhombus;whiteSpace=wrap;html=1;fontStyle=1;strokeWidth=2;container=0;" vertex="1" parent="Q_hBiNqEn_xHVOAoxWD8-21">
          <mxGeometry x="411" y="410" width="45" height="40" as="geometry" />
        </mxCell>
        <mxCell id="SYo61iC2OcOXfZJLhJHc-11" style="edgeStyle=orthogonalEdgeStyle;rounded=0;orthogonalLoop=1;jettySize=auto;html=1;entryX=0.5;entryY=1;entryDx=0;entryDy=0;strokeWidth=2;fontStyle=1;endArrow=open;endFill=0;" edge="1" parent="Q_hBiNqEn_xHVOAoxWD8-21" source="SYo61iC2OcOXfZJLhJHc-8" target="Q_hBiNqEn_xHVOAoxWD8-60">
          <mxGeometry relative="1" as="geometry">
            <Array as="points">
              <mxPoint x="434" y="340" />
              <mxPoint x="396" y="340" />
            </Array>
          </mxGeometry>
        </mxCell>
        <mxCell id="Q_hBiNqEn_xHVOAoxWD8-89" style="edgeStyle=orthogonalEdgeStyle;rounded=0;orthogonalLoop=1;jettySize=auto;html=1;exitX=0.5;exitY=1;exitDx=0;exitDy=0;entryX=0;entryY=0.5;entryDx=0;entryDy=0;strokeWidth=2;fontStyle=1;endArrow=open;endFill=0;" edge="1" parent="Q_hBiNqEn_xHVOAoxWD8-21" source="_QOIRfVNd8GYYF-5jFCs-7" target="Q_hBiNqEn_xHVOAoxWD8-88">
          <mxGeometry relative="1" as="geometry" />
        </mxCell>
        <mxCell id="_QOIRfVNd8GYYF-5jFCs-7" value="Verificar credenciais" style="rounded=1;whiteSpace=wrap;html=1;arcSize=40;strokeWidth=2;fontStyle=1" vertex="1" parent="Q_hBiNqEn_xHVOAoxWD8-21">
          <mxGeometry x="51.38" y="450" width="110" height="40" as="geometry" />
        </mxCell>
        <mxCell id="Q_hBiNqEn_xHVOAoxWD8-90" style="edgeStyle=orthogonalEdgeStyle;rounded=0;orthogonalLoop=1;jettySize=auto;html=1;exitX=0.5;exitY=0;exitDx=0;exitDy=0;entryX=0;entryY=0.5;entryDx=0;entryDy=0;strokeWidth=2;fontStyle=1;endArrow=open;endFill=0;" edge="1" parent="Q_hBiNqEn_xHVOAoxWD8-21" source="Q_hBiNqEn_xHVOAoxWD8-88" target="_QOIRfVNd8GYYF-5jFCs-1">
          <mxGeometry relative="1" as="geometry" />
        </mxCell>
        <mxCell id="Q_hBiNqEn_xHVOAoxWD8-92" style="edgeStyle=orthogonalEdgeStyle;rounded=0;orthogonalLoop=1;jettySize=auto;html=1;exitX=0.5;exitY=1;exitDx=0;exitDy=0;entryX=0.5;entryY=0;entryDx=0;entryDy=0;strokeWidth=2;fontStyle=1;endArrow=open;endFill=0;" edge="1" parent="Q_hBiNqEn_xHVOAoxWD8-21" source="Q_hBiNqEn_xHVOAoxWD8-88" target="Q_hBiNqEn_xHVOAoxWD8-91">
          <mxGeometry relative="1" as="geometry">
            <Array as="points">
              <mxPoint x="181" y="560" />
              <mxPoint x="121" y="560" />
            </Array>
          </mxGeometry>
        </mxCell>
        <mxCell id="Q_hBiNqEn_xHVOAoxWD8-88" value="" style="rhombus;whiteSpace=wrap;html=1;fontStyle=1;strokeWidth=2;container=0;" vertex="1" parent="Q_hBiNqEn_xHVOAoxWD8-21">
          <mxGeometry x="158.5" y="510" width="45" height="40" as="geometry" />
        </mxCell>
        <mxCell id="Q_hBiNqEn_xHVOAoxWD8-91" value="Exibir mensagem de erro" style="rounded=1;whiteSpace=wrap;html=1;arcSize=40;strokeWidth=2;fontStyle=1" vertex="1" parent="Q_hBiNqEn_xHVOAoxWD8-21">
          <mxGeometry x="68.5" y="580" width="105" height="40" as="geometry" />
        </mxCell>
        <mxCell id="Q_hBiNqEn_xHVOAoxWD8-95" value="[válido]" style="text;html=1;align=center;verticalAlign=middle;whiteSpace=wrap;rounded=0;fontStyle=1;strokeWidth=2;" vertex="1" parent="Q_hBiNqEn_xHVOAoxWD8-21">
          <mxGeometry x="181.01" y="470" width="60" height="30" as="geometry" />
        </mxCell>
        <mxCell id="Q_hBiNqEn_xHVOAoxWD8-96" value="[else]" style="text;html=1;align=center;verticalAlign=middle;whiteSpace=wrap;rounded=0;fontStyle=1;strokeWidth=2;" vertex="1" parent="Q_hBiNqEn_xHVOAoxWD8-21">
          <mxGeometry x="173.5" y="550" width="60" height="30" as="geometry" />
        </mxCell>
        <mxCell id="Q_hBiNqEn_xHVOAoxWD8-97" value="[válido]" style="text;html=1;align=center;verticalAlign=middle;whiteSpace=wrap;rounded=0;fontStyle=1;strokeWidth=2;" vertex="1" parent="Q_hBiNqEn_xHVOAoxWD8-21">
          <mxGeometry x="409.5" y="500" width="60" height="30" as="geometry" />
        </mxCell>
        <mxCell id="Q_hBiNqEn_xHVOAoxWD8-98" value="[else]" style="text;html=1;align=center;verticalAlign=middle;whiteSpace=wrap;rounded=0;fontStyle=1;strokeWidth=2;" vertex="1" parent="Q_hBiNqEn_xHVOAoxWD8-21">
          <mxGeometry x="428.5" y="370" width="60" height="30" as="geometry" />
        </mxCell>
        <mxCell id="Q_hBiNqEn_xHVOAoxWD8-51" value="" style="edgeStyle=orthogonalEdgeStyle;html=1;verticalAlign=bottom;endArrow=open;endSize=8;rounded=0;entryX=0;entryY=0.5;entryDx=0;entryDy=0;strokeWidth=2;exitX=1;exitY=0.5;exitDx=0;exitDy=0;fontStyle=1" edge="1" parent="1" source="Q_hBiNqEn_xHVOAoxWD8-11" target="Q_hBiNqEn_xHVOAoxWD8-52">
          <mxGeometry relative="1" as="geometry">
            <mxPoint x="729" y="1140" as="targetPoint" />
            <Array as="points">
              <mxPoint x="794" y="830" />
              <mxPoint x="794" y="770" />
            </Array>
            <mxPoint x="670" y="840" as="sourcePoint" />
          </mxGeometry>
        </mxCell>
        <mxCell id="Q_hBiNqEn_xHVOAoxWD8-54" style="edgeStyle=orthogonalEdgeStyle;rounded=0;orthogonalLoop=1;jettySize=auto;html=1;exitX=0.5;exitY=1;exitDx=0;exitDy=0;entryX=0.5;entryY=0;entryDx=0;entryDy=0;strokeWidth=2;fontStyle=1;endArrow=open;endFill=0;" edge="1" parent="1" source="Q_hBiNqEn_xHVOAoxWD8-52" target="Q_hBiNqEn_xHVOAoxWD8-46">
          <mxGeometry relative="1" as="geometry">
            <Array as="points">
              <mxPoint x="960" y="860" />
              <mxPoint x="516" y="860" />
            </Array>
          </mxGeometry>
        </mxCell>
        <mxCell id="SYo61iC2OcOXfZJLhJHc-3" value="" style="swimlane;startSize=0;strokeWidth=2;rounded=0;fontStyle=1" vertex="1" parent="1">
          <mxGeometry x="1270" y="690" width="260" height="690" as="geometry" />
        </mxCell>
        <mxCell id="SYo61iC2OcOXfZJLhJHc-4" value="Google" style="text;html=1;align=center;verticalAlign=middle;whiteSpace=wrap;rounded=0;rotation=0;fontStyle=1;strokeWidth=2;" vertex="1" parent="SYo61iC2OcOXfZJLhJHc-3">
          <mxGeometry x="100" width="60" height="30" as="geometry" />
        </mxCell>
        <mxCell id="SYo61iC2OcOXfZJLhJHc-2" value="Autenticar Email" style="rounded=1;whiteSpace=wrap;html=1;arcSize=40;strokeWidth=2;fontStyle=1" vertex="1" parent="SYo61iC2OcOXfZJLhJHc-3">
          <mxGeometry x="70" y="600" width="120" height="40" as="geometry" />
        </mxCell>
        <mxCell id="Q_hBiNqEn_xHVOAoxWD8-58" style="edgeStyle=orthogonalEdgeStyle;rounded=0;orthogonalLoop=1;jettySize=auto;html=1;exitX=0.5;exitY=1;exitDx=0;exitDy=0;entryX=0;entryY=0.5;entryDx=0;entryDy=0;strokeWidth=2;fontStyle=1;endArrow=open;endFill=0;" edge="1" parent="1" source="Q_hBiNqEn_xHVOAoxWD8-57" target="SYo61iC2OcOXfZJLhJHc-2">
          <mxGeometry relative="1" as="geometry">
            <Array as="points">
              <mxPoint x="516" y="1330" />
              <mxPoint x="983" y="1330" />
              <mxPoint x="983" y="1310" />
            </Array>
          </mxGeometry>
        </mxCell>
        <mxCell id="7lL12VwE3lAqNcfQPV7W-6" style="edgeStyle=orthogonalEdgeStyle;rounded=0;orthogonalLoop=1;jettySize=auto;html=1;entryX=1;entryY=0.5;entryDx=0;entryDy=0;strokeWidth=2;fontStyle=1;endArrow=open;endFill=0;" edge="1" parent="1" source="SYo61iC2OcOXfZJLhJHc-2" target="SYo61iC2OcOXfZJLhJHc-8">
          <mxGeometry relative="1" as="geometry">
            <Array as="points">
              <mxPoint x="1400" y="1120" />
            </Array>
          </mxGeometry>
        </mxCell>
        <mxCell id="Q_hBiNqEn_xHVOAoxWD8-85" style="edgeStyle=orthogonalEdgeStyle;rounded=0;orthogonalLoop=1;jettySize=auto;html=1;exitX=1;exitY=0.5;exitDx=0;exitDy=0;strokeWidth=2;fontStyle=1;endArrow=open;endFill=0;" edge="1" parent="1" source="Q_hBiNqEn_xHVOAoxWD8-55" target="Q_hBiNqEn_xHVOAoxWD8-71">
          <mxGeometry relative="1" as="geometry" />
        </mxCell>
        <mxCell id="Q_hBiNqEn_xHVOAoxWD8-86" style="edgeStyle=orthogonalEdgeStyle;rounded=0;orthogonalLoop=1;jettySize=auto;html=1;exitX=0;exitY=0.5;exitDx=0;exitDy=0;entryX=0.5;entryY=1;entryDx=0;entryDy=0;strokeWidth=2;fontStyle=1;endArrow=open;endFill=0;" edge="1" parent="1" source="Q_hBiNqEn_xHVOAoxWD8-74" target="Q_hBiNqEn_xHVOAoxWD8-55">
          <mxGeometry relative="1" as="geometry">
            <Array as="points">
              <mxPoint x="890" y="1090" />
              <mxPoint x="890" y="1020" />
              <mxPoint x="680" y="1020" />
            </Array>
          </mxGeometry>
        </mxCell>
        <mxCell id="Q_hBiNqEn_xHVOAoxWD8-87" style="edgeStyle=orthogonalEdgeStyle;rounded=0;orthogonalLoop=1;jettySize=auto;html=1;exitX=1;exitY=0.5;exitDx=0;exitDy=0;entryX=0;entryY=0.5;entryDx=0;entryDy=0;strokeWidth=2;fontStyle=1;endArrow=open;endFill=0;" edge="1" parent="1" source="Q_hBiNqEn_xHVOAoxWD8-50" target="_QOIRfVNd8GYYF-5jFCs-7">
          <mxGeometry relative="1" as="geometry">
            <Array as="points">
              <mxPoint x="790" y="1080" />
              <mxPoint x="790" y="1160" />
            </Array>
          </mxGeometry>
        </mxCell>
        <mxCell id="Q_hBiNqEn_xHVOAoxWD8-93" style="edgeStyle=orthogonalEdgeStyle;rounded=0;orthogonalLoop=1;jettySize=auto;html=1;exitX=0;exitY=0.5;exitDx=0;exitDy=0;entryX=0.5;entryY=1;entryDx=0;entryDy=0;shadow=1;jumpStyle=none;jumpSize=24;strokeWidth=2;fontStyle=1;endArrow=open;endFill=0;" edge="1" parent="1" source="Q_hBiNqEn_xHVOAoxWD8-91" target="Q_hBiNqEn_xHVOAoxWD8-50">
          <mxGeometry relative="1" as="geometry">
            <Array as="points">
              <mxPoint x="750" y="1290" />
              <mxPoint x="750" y="1130" />
              <mxPoint x="670" y="1130" />
            </Array>
          </mxGeometry>
        </mxCell>
      </root>
    </mxGraphModel>
  </diagram>
</mxfile>
